<mxfile host="app.diagrams.net" agent="Mozilla/5.0 (Windows NT 10.0; Win64; x64) AppleWebKit/537.36 (KHTML, like Gecko) Chrome/127.0.0.0 Safari/537.36" version="24.7.7">
  <diagram name="Page-1" id="5f0bae14-7c28-e335-631c-24af17079c00">
    <mxGraphModel dx="1050" dy="653" grid="1" gridSize="10" guides="1" tooltips="1" connect="1" arrows="1" fold="1" page="1" pageScale="1" pageWidth="1100" pageHeight="850" background="none" math="0" shadow="0">
      <root>
        <mxCell id="0" />
        <mxCell id="1" parent="0" />
        <mxCell id="op6FMdHfQH28spkMEmfJ-1" value="" style="swimlane;startSize=0;" vertex="1" parent="1">
          <mxGeometry x="30" y="130" width="280" height="310" as="geometry" />
        </mxCell>
        <mxCell id="op6FMdHfQH28spkMEmfJ-3" value="Web UI" style="rounded=1;whiteSpace=wrap;html=1;" vertex="1" parent="op6FMdHfQH28spkMEmfJ-1">
          <mxGeometry x="80" y="110" width="120" height="60" as="geometry" />
        </mxCell>
        <mxCell id="op6FMdHfQH28spkMEmfJ-4" value="Mobile App" style="rounded=1;whiteSpace=wrap;html=1;" vertex="1" parent="op6FMdHfQH28spkMEmfJ-1">
          <mxGeometry x="80" y="200" width="120" height="60" as="geometry" />
        </mxCell>
        <mxCell id="op6FMdHfQH28spkMEmfJ-2" value="Client Apps" style="text;html=1;align=center;verticalAlign=middle;resizable=0;points=[];autosize=1;strokeColor=none;fillColor=none;" vertex="1" parent="1">
          <mxGeometry x="60" y="138" width="80" height="30" as="geometry" />
        </mxCell>
        <mxCell id="op6FMdHfQH28spkMEmfJ-6" value="Auth provider (AAD, Okta etc)" style="rounded=1;whiteSpace=wrap;html=1;" vertex="1" parent="1">
          <mxGeometry x="110" y="540" width="120" height="60" as="geometry" />
        </mxCell>
        <mxCell id="op6FMdHfQH28spkMEmfJ-8" value="" style="shape=flexArrow;endArrow=classic;startArrow=classic;html=1;rounded=0;entryX=0.5;entryY=1;entryDx=0;entryDy=0;" edge="1" parent="1" target="op6FMdHfQH28spkMEmfJ-1">
          <mxGeometry width="100" height="100" relative="1" as="geometry">
            <mxPoint x="170" y="540" as="sourcePoint" />
            <mxPoint x="177.84313725490188" y="440" as="targetPoint" />
          </mxGeometry>
        </mxCell>
        <mxCell id="op6FMdHfQH28spkMEmfJ-11" value="" style="swimlane;startSize=0;" vertex="1" parent="1">
          <mxGeometry x="350" y="30" width="680" height="630" as="geometry" />
        </mxCell>
        <mxCell id="op6FMdHfQH28spkMEmfJ-12" value="API Gateway" style="rounded=1;whiteSpace=wrap;html=1;" vertex="1" parent="op6FMdHfQH28spkMEmfJ-11">
          <mxGeometry x="50" y="50" width="60" height="490" as="geometry" />
        </mxCell>
        <mxCell id="op6FMdHfQH28spkMEmfJ-16" value="ProductAPI" style="rounded=1;whiteSpace=wrap;html=1;" vertex="1" parent="op6FMdHfQH28spkMEmfJ-11">
          <mxGeometry x="230" y="50" width="120" height="60" as="geometry" />
        </mxCell>
        <mxCell id="op6FMdHfQH28spkMEmfJ-18" value="OrderAPI" style="rounded=1;whiteSpace=wrap;html=1;" vertex="1" parent="op6FMdHfQH28spkMEmfJ-11">
          <mxGeometry x="230" y="340" width="120" height="60" as="geometry" />
        </mxCell>
        <mxCell id="op6FMdHfQH28spkMEmfJ-17" value="CustomerAPI" style="rounded=1;whiteSpace=wrap;html=1;" vertex="1" parent="op6FMdHfQH28spkMEmfJ-11">
          <mxGeometry x="230" y="200" width="120" height="60" as="geometry" />
        </mxCell>
        <mxCell id="op6FMdHfQH28spkMEmfJ-19" value="PaymentAPI" style="rounded=1;whiteSpace=wrap;html=1;" vertex="1" parent="op6FMdHfQH28spkMEmfJ-11">
          <mxGeometry x="230" y="480" width="120" height="60" as="geometry" />
        </mxCell>
        <mxCell id="op6FMdHfQH28spkMEmfJ-21" value="ProductDB" style="shape=cylinder3;whiteSpace=wrap;html=1;boundedLbl=1;backgroundOutline=1;size=15;" vertex="1" parent="op6FMdHfQH28spkMEmfJ-11">
          <mxGeometry x="450" y="40" width="60" height="80" as="geometry" />
        </mxCell>
        <mxCell id="op6FMdHfQH28spkMEmfJ-22" value="CustomerDB" style="shape=cylinder3;whiteSpace=wrap;html=1;boundedLbl=1;backgroundOutline=1;size=15;" vertex="1" parent="op6FMdHfQH28spkMEmfJ-11">
          <mxGeometry x="450" y="190" width="60" height="80" as="geometry" />
        </mxCell>
        <mxCell id="op6FMdHfQH28spkMEmfJ-23" value="OrderDB" style="shape=cylinder3;whiteSpace=wrap;html=1;boundedLbl=1;backgroundOutline=1;size=15;" vertex="1" parent="op6FMdHfQH28spkMEmfJ-11">
          <mxGeometry x="450" y="340" width="60" height="80" as="geometry" />
        </mxCell>
        <mxCell id="op6FMdHfQH28spkMEmfJ-24" value="PaymentDB" style="shape=cylinder3;whiteSpace=wrap;html=1;boundedLbl=1;backgroundOutline=1;size=15;" vertex="1" parent="op6FMdHfQH28spkMEmfJ-11">
          <mxGeometry x="450" y="470" width="60" height="80" as="geometry" />
        </mxCell>
        <mxCell id="op6FMdHfQH28spkMEmfJ-25" value="" style="endArrow=classic;html=1;rounded=0;exitX=1.06;exitY=0.476;exitDx=0;exitDy=0;exitPerimeter=0;entryX=0;entryY=0.5;entryDx=0;entryDy=0;" edge="1" parent="op6FMdHfQH28spkMEmfJ-11" source="op6FMdHfQH28spkMEmfJ-12" target="op6FMdHfQH28spkMEmfJ-16">
          <mxGeometry width="50" height="50" relative="1" as="geometry">
            <mxPoint x="160" y="330" as="sourcePoint" />
            <mxPoint x="210" y="280" as="targetPoint" />
          </mxGeometry>
        </mxCell>
        <mxCell id="op6FMdHfQH28spkMEmfJ-26" value="" style="endArrow=classic;html=1;rounded=0;exitX=1.047;exitY=0.479;exitDx=0;exitDy=0;exitPerimeter=0;entryX=0;entryY=0.5;entryDx=0;entryDy=0;" edge="1" parent="op6FMdHfQH28spkMEmfJ-11" source="op6FMdHfQH28spkMEmfJ-12" target="op6FMdHfQH28spkMEmfJ-17">
          <mxGeometry width="50" height="50" relative="1" as="geometry">
            <mxPoint x="160" y="330" as="sourcePoint" />
            <mxPoint x="210" y="280" as="targetPoint" />
          </mxGeometry>
        </mxCell>
        <mxCell id="op6FMdHfQH28spkMEmfJ-29" value="" style="endArrow=classic;html=1;rounded=0;exitX=1.073;exitY=0.484;exitDx=0;exitDy=0;exitPerimeter=0;entryX=0;entryY=0.5;entryDx=0;entryDy=0;" edge="1" parent="op6FMdHfQH28spkMEmfJ-11" source="op6FMdHfQH28spkMEmfJ-12" target="op6FMdHfQH28spkMEmfJ-18">
          <mxGeometry width="50" height="50" relative="1" as="geometry">
            <mxPoint x="123" y="295" as="sourcePoint" />
            <mxPoint x="240" y="240" as="targetPoint" />
            <Array as="points">
              <mxPoint x="230" y="370" />
            </Array>
          </mxGeometry>
        </mxCell>
        <mxCell id="op6FMdHfQH28spkMEmfJ-33" value="" style="endArrow=classic;html=1;rounded=0;exitX=1;exitY=0.5;exitDx=0;exitDy=0;entryX=0;entryY=0.5;entryDx=0;entryDy=0;" edge="1" parent="op6FMdHfQH28spkMEmfJ-11" source="op6FMdHfQH28spkMEmfJ-12">
          <mxGeometry width="50" height="50" relative="1" as="geometry">
            <mxPoint x="114" y="713" as="sourcePoint" />
            <mxPoint x="230" y="510" as="targetPoint" />
          </mxGeometry>
        </mxCell>
        <mxCell id="op6FMdHfQH28spkMEmfJ-34" style="edgeStyle=orthogonalEdgeStyle;rounded=0;orthogonalLoop=1;jettySize=auto;html=1;exitX=1;exitY=0.5;exitDx=0;exitDy=0;entryX=0;entryY=0.5;entryDx=0;entryDy=0;entryPerimeter=0;" edge="1" parent="op6FMdHfQH28spkMEmfJ-11" source="op6FMdHfQH28spkMEmfJ-16" target="op6FMdHfQH28spkMEmfJ-21">
          <mxGeometry relative="1" as="geometry" />
        </mxCell>
        <mxCell id="op6FMdHfQH28spkMEmfJ-35" style="edgeStyle=orthogonalEdgeStyle;rounded=0;orthogonalLoop=1;jettySize=auto;html=1;exitX=1;exitY=0.5;exitDx=0;exitDy=0;entryX=0;entryY=0.5;entryDx=0;entryDy=0;entryPerimeter=0;" edge="1" parent="op6FMdHfQH28spkMEmfJ-11" source="op6FMdHfQH28spkMEmfJ-17" target="op6FMdHfQH28spkMEmfJ-22">
          <mxGeometry relative="1" as="geometry" />
        </mxCell>
        <mxCell id="op6FMdHfQH28spkMEmfJ-36" style="edgeStyle=orthogonalEdgeStyle;rounded=0;orthogonalLoop=1;jettySize=auto;html=1;exitX=1;exitY=0.5;exitDx=0;exitDy=0;entryX=0;entryY=0;entryDx=0;entryDy=27.5;entryPerimeter=0;" edge="1" parent="op6FMdHfQH28spkMEmfJ-11" source="op6FMdHfQH28spkMEmfJ-18" target="op6FMdHfQH28spkMEmfJ-23">
          <mxGeometry relative="1" as="geometry" />
        </mxCell>
        <mxCell id="op6FMdHfQH28spkMEmfJ-37" style="edgeStyle=orthogonalEdgeStyle;rounded=0;orthogonalLoop=1;jettySize=auto;html=1;exitX=1;exitY=0.5;exitDx=0;exitDy=0;entryX=0;entryY=0.5;entryDx=0;entryDy=0;entryPerimeter=0;" edge="1" parent="op6FMdHfQH28spkMEmfJ-11" source="op6FMdHfQH28spkMEmfJ-19" target="op6FMdHfQH28spkMEmfJ-24">
          <mxGeometry relative="1" as="geometry" />
        </mxCell>
        <mxCell id="op6FMdHfQH28spkMEmfJ-15" value="Microservices" style="text;html=1;align=center;verticalAlign=middle;resizable=0;points=[];autosize=1;strokeColor=none;fillColor=none;" vertex="1" parent="1">
          <mxGeometry x="650" y="38" width="100" height="30" as="geometry" />
        </mxCell>
        <mxCell id="op6FMdHfQH28spkMEmfJ-20" value="Event Bus (Kafka, Azure Service Bus, RabbitMQ)" style="rounded=1;whiteSpace=wrap;html=1;" vertex="1" parent="1">
          <mxGeometry x="910" y="80" width="70" height="480" as="geometry" />
        </mxCell>
        <mxCell id="op6FMdHfQH28spkMEmfJ-27" style="edgeStyle=orthogonalEdgeStyle;rounded=0;orthogonalLoop=1;jettySize=auto;html=1;exitX=1;exitY=0.5;exitDx=0;exitDy=0;entryX=0.073;entryY=0.471;entryDx=0;entryDy=0;entryPerimeter=0;" edge="1" parent="1" source="op6FMdHfQH28spkMEmfJ-3" target="op6FMdHfQH28spkMEmfJ-12">
          <mxGeometry relative="1" as="geometry" />
        </mxCell>
        <mxCell id="op6FMdHfQH28spkMEmfJ-28" style="edgeStyle=orthogonalEdgeStyle;rounded=0;orthogonalLoop=1;jettySize=auto;html=1;exitX=1;exitY=0.5;exitDx=0;exitDy=0;entryX=0;entryY=0.5;entryDx=0;entryDy=0;" edge="1" parent="1" source="op6FMdHfQH28spkMEmfJ-4" target="op6FMdHfQH28spkMEmfJ-12">
          <mxGeometry relative="1" as="geometry" />
        </mxCell>
        <mxCell id="op6FMdHfQH28spkMEmfJ-38" style="edgeStyle=orthogonalEdgeStyle;rounded=0;orthogonalLoop=1;jettySize=auto;html=1;exitX=1;exitY=0.75;exitDx=0;exitDy=0;entryX=0;entryY=0.25;entryDx=0;entryDy=0;" edge="1" parent="1" source="op6FMdHfQH28spkMEmfJ-16" target="op6FMdHfQH28spkMEmfJ-20">
          <mxGeometry relative="1" as="geometry">
            <Array as="points">
              <mxPoint x="700" y="200" />
            </Array>
          </mxGeometry>
        </mxCell>
        <mxCell id="op6FMdHfQH28spkMEmfJ-39" style="edgeStyle=orthogonalEdgeStyle;rounded=0;orthogonalLoop=1;jettySize=auto;html=1;exitX=1;exitY=0.75;exitDx=0;exitDy=0;entryX=0.057;entryY=0.544;entryDx=0;entryDy=0;entryPerimeter=0;" edge="1" parent="1" source="op6FMdHfQH28spkMEmfJ-17" target="op6FMdHfQH28spkMEmfJ-20">
          <mxGeometry relative="1" as="geometry">
            <Array as="points">
              <mxPoint x="700" y="340" />
              <mxPoint x="805" y="340" />
              <mxPoint x="805" y="341" />
            </Array>
          </mxGeometry>
        </mxCell>
        <mxCell id="op6FMdHfQH28spkMEmfJ-40" style="edgeStyle=orthogonalEdgeStyle;rounded=0;orthogonalLoop=1;jettySize=auto;html=1;exitX=1;exitY=0.75;exitDx=0;exitDy=0;entryX=0;entryY=0.842;entryDx=0;entryDy=0;entryPerimeter=0;" edge="1" parent="1" source="op6FMdHfQH28spkMEmfJ-18" target="op6FMdHfQH28spkMEmfJ-20">
          <mxGeometry relative="1" as="geometry">
            <Array as="points">
              <mxPoint x="700" y="490" />
              <mxPoint x="805" y="490" />
              <mxPoint x="805" y="484" />
            </Array>
          </mxGeometry>
        </mxCell>
        <mxCell id="op6FMdHfQH28spkMEmfJ-41" style="edgeStyle=orthogonalEdgeStyle;rounded=0;orthogonalLoop=1;jettySize=auto;html=1;exitX=1;exitY=0.25;exitDx=0;exitDy=0;entryX=0.046;entryY=0.869;entryDx=0;entryDy=0;entryPerimeter=0;" edge="1" parent="1" source="op6FMdHfQH28spkMEmfJ-19" target="op6FMdHfQH28spkMEmfJ-20">
          <mxGeometry relative="1" as="geometry">
            <Array as="points">
              <mxPoint x="700" y="500" />
              <mxPoint x="805" y="500" />
              <mxPoint x="805" y="497" />
            </Array>
          </mxGeometry>
        </mxCell>
      </root>
    </mxGraphModel>
  </diagram>
</mxfile>
